<svg xmlns="http://www.w3.org/2000/svg" viewBox="0 0 1200 520" role="img" aria-labelledby="title desc">
  <title id="title">Non-excludable principle diagram</title>
  <desc id="desc">A public display can be seen by people outside a ticket gate, so non-payers cannot easily be excluded.</desc>
  <rect width="1200" height="520" fill="#07111f"/>
  <g stroke="#ffd166" stroke-width="8" stroke-linecap="round">
    <path d="M608 80 V190"/>
    <path d="M608 80 L528 176"/>
    <path d="M608 80 L688 176"/>
    <path d="M608 80 L472 122"/>
    <path d="M608 80 L744 122"/>
  </g>
  <g fill="none" stroke="#ffd166" stroke-width="10" opacity="0.42">
    <circle cx="608" cy="80" r="62"/>
    <circle cx="608" cy="80" r="116"/>
  </g>
  <path d="M168 190 C310 270 460 310 610 310 C760 310 908 270 1038 190" fill="none" stroke="#ffd166" stroke-width="42" stroke-linecap="round" opacity="0.18"/>
  <g fill="#56d8ff">
    <circle cx="275" cy="348" r="31"/>
    <path d="M232 438 C240 390 257 371 275 371 C293 371 310 390 318 438 Z"/>
    <circle cx="470" cy="350" r="31"/>
    <path d="M427 440 C435 392 452 373 470 373 C488 373 505 392 513 440 Z"/>
    <circle cx="730" cy="350" r="31"/>
    <path d="M687 440 C695 392 712 373 730 373 C748 373 765 392 773 440 Z"/>
    <circle cx="925" cy="348" r="31"/>
    <path d="M882 438 C890 390 907 371 925 371 C943 371 960 390 968 438 Z"/>
  </g>
  <g>
    <rect x="542" y="328" width="116" height="136" rx="12" fill="#12233a" stroke="#dbe7f6" stroke-width="8"/>
    <path d="M542 396 H430" stroke="#dbe7f6" stroke-width="12" stroke-linecap="round"/>
    <path d="M658 396 H770" stroke="#dbe7f6" stroke-width="12" stroke-linecap="round"/>
    <path d="M570 362 H630" stroke="#ffd166" stroke-width="10" stroke-linecap="round"/>
    <path d="M570 430 H630" stroke="#ffd166" stroke-width="10" stroke-linecap="round"/>
  </g>
  <g stroke="#ff6b6b" stroke-width="14" stroke-linecap="round">
    <path d="M410 292 L790 474"/>
    <path d="M790 292 L410 474"/>
  </g>
  <rect x="72" y="38" width="382" height="70" rx="18" fill="#12233a" stroke="#ff6b6b" stroke-width="3"/>
  <text x="263" y="84" fill="#edf4ff" font-family="Arial, sans-serif" font-size="33" font-weight="800" text-anchor="middle">hard to block</text>
  <rect x="746" y="38" width="382" height="70" rx="18" fill="#12233a" stroke="#7ef0b5" stroke-width="3"/>
  <text x="937" y="84" fill="#edf4ff" font-family="Arial, sans-serif" font-size="33" font-weight="800" text-anchor="middle">non-payers benefit</text>
</svg>
