<svg xmlns="http://www.w3.org/2000/svg" viewBox="0 0 650 630"><rect width="650" height="630" rx="24" fill="#f7f7f2"/><path d="M90 195 V527 M558 195 V527" stroke="#142f43" stroke-width="12"/><path d="M63 184 L111 105 H536 L584 184Z" fill="#166c72"/><path d="M65 184 h74 v35 q-37 40-74 0Z" fill="#166c72"/><path d="M139 184 h74 v35 q-37 40-74 0Z" fill="#d6a34a"/><path d="M213 184 h74 v35 q-37 40-74 0Z" fill="#166c72"/><path d="M287 184 h74 v35 q-37 40-74 0Z" fill="#d6a34a"/><path d="M361 184 h74 v35 q-37 40-74 0Z" fill="#166c72"/><path d="M435 184 h74 v35 q-37 40-74 0Z" fill="#d6a34a"/><path d="M509 184 h74 v35 q-37 40-74 0Z" fill="#166c72"/><rect x="107" y="416" width="439" height="124" rx="8" fill="#d6a34a"/><g transform="translate(430 288)"><circle cy="-20" r="30" fill="#d7a37f"/><path d="M-31-28 Q-28-77 18-50 L36-17 L9-33 L-16-14Z" fill="#142f43"/><path d="M-53 109 V35 Q-53 12 0 12 Q53 12 53 35 V109Z" fill="#ba7156"/><path d="M-26 107 V148 M26 107 V148" stroke="#142f43" stroke-width="17" stroke-linecap="round"/></g><g transform="translate(135 340)"><rect width="40" height="34" rx="4" fill="#166c72"/><text x="20" y="25" text-anchor="middle" font-family="Arial,sans-serif" font-size="19" font-weight="700" fill="white">1</text></g><g transform="translate(182 340)"><rect width="40" height="34" rx="4" fill="#166c72"/><text x="20" y="25" text-anchor="middle" font-family="Arial,sans-serif" font-size="19" font-weight="700" fill="white">2</text></g><g transform="translate(229 340)"><rect width="40" height="34" rx="4" fill="#166c72"/><text x="20" y="25" text-anchor="middle" font-family="Arial,sans-serif" font-size="19" font-weight="700" fill="white">3</text></g><g transform="translate(276 340)"><rect width="40" height="34" rx="4" fill="#166c72"/><text x="20" y="25" text-anchor="middle" font-family="Arial,sans-serif" font-size="19" font-weight="700" fill="white">4</text></g><g transform="translate(323 340)"><rect width="40" height="34" rx="4" fill="#166c72"/><text x="20" y="25" text-anchor="middle" font-family="Arial,sans-serif" font-size="19" font-weight="700" fill="white">5</text></g><g transform="translate(370 340)"><rect width="40" height="34" rx="4" fill="#166c72"/><text x="20" y="25" text-anchor="middle" font-family="Arial,sans-serif" font-size="19" font-weight="700" fill="white">6</text></g><g transform="translate(135 385)"><rect width="40" height="34" rx="4" fill="#166c72"/><text x="20" y="25" text-anchor="middle" font-family="Arial,sans-serif" font-size="19" font-weight="700" fill="white">7</text></g><g transform="translate(182 385)"><rect width="40" height="34" rx="4" fill="#166c72"/><text x="20" y="25" text-anchor="middle" font-family="Arial,sans-serif" font-size="19" font-weight="700" fill="white">8</text></g><g transform="translate(229 385)"><rect width="40" height="34" rx="4" fill="#166c72"/><text x="20" y="25" text-anchor="middle" font-family="Arial,sans-serif" font-size="19" font-weight="700" fill="white">9</text></g><g transform="translate(276 385)"><rect width="40" height="34" rx="4" fill="#166c72"/><text x="20" y="25" text-anchor="middle" font-family="Arial,sans-serif" font-size="19" font-weight="700" fill="white">10</text></g><g transform="translate(323 385)"><rect width="40" height="34" rx="4" fill="#166c72"/><text x="20" y="25" text-anchor="middle" font-family="Arial,sans-serif" font-size="19" font-weight="700" fill="white">11</text></g><g transform="translate(370 385)"><rect width="40" height="34" rx="4" fill="#166c72"/><text x="20" y="25" text-anchor="middle" font-family="Arial,sans-serif" font-size="19" font-weight="700" fill="white">12</text></g><text x="324" y="492" text-anchor="middle" font-family="Arial,sans-serif" font-size="30" font-weight="700" fill="#142f43">EMMA’S BREAD STALL</text><text x="324" y="63" text-anchor="middle" font-family="Arial,sans-serif" font-size="32" font-weight="700" fill="#142f43">SATURDAY · 10:00</text><circle cx="559" cy="314" r="52" fill="#f7f7f2" stroke="#ba7156" stroke-width="5"/><text x="559" y="324" text-anchor="middle" font-family="Arial,sans-serif" font-size="32" font-weight="700" fill="#142f43">¥15</text><text x="218" y="586" text-anchor="middle" font-family="Arial,sans-serif" font-size="29" font-weight="700" fill="#142f43">12 boxes</text><text x="464" y="586" text-anchor="middle" font-family="Arial,sans-serif" font-size="29" font-weight="700" fill="#142f43">¥120 total cost</text></svg>